<mxfile host="app.diagrams.net" modified="2024-05-09T02:54:45.284Z" agent="Mozilla/5.0 (Windows NT 10.0; Win64; x64) AppleWebKit/537.36 (KHTML, like Gecko) Chrome/124.0.0.0 Safari/537.36" etag="Ndk-lB5a-ZPGUR-WGbdv" version="24.3.1" type="github">
  <diagram name="Page-1" id="KIe_ybBxgGNIqeYdoraN">
    <mxGraphModel dx="1595" dy="1092" grid="0" gridSize="10" guides="1" tooltips="1" connect="1" arrows="1" fold="1" page="0" pageScale="1" pageWidth="850" pageHeight="1100" math="0" shadow="0">
      <root>
        <mxCell id="0" />
        <mxCell id="1" parent="0" />
        <mxCell id="OYpPtCtqeWTvnb7ZfXrP-19" value="" style="edgeStyle=none;curved=1;rounded=0;orthogonalLoop=1;jettySize=auto;html=1;fontSize=12;startSize=8;endSize=8;" edge="1" parent="1" source="OYpPtCtqeWTvnb7ZfXrP-1" target="OYpPtCtqeWTvnb7ZfXrP-18">
          <mxGeometry relative="1" as="geometry" />
        </mxCell>
        <mxCell id="OYpPtCtqeWTvnb7ZfXrP-25" value="" style="edgeStyle=none;curved=1;rounded=0;orthogonalLoop=1;jettySize=auto;html=1;fontSize=12;startSize=8;endSize=8;" edge="1" parent="1" source="OYpPtCtqeWTvnb7ZfXrP-1" target="OYpPtCtqeWTvnb7ZfXrP-24">
          <mxGeometry relative="1" as="geometry" />
        </mxCell>
        <mxCell id="OYpPtCtqeWTvnb7ZfXrP-1" value="Médico" style="rounded=0;whiteSpace=wrap;html=1;" vertex="1" parent="1">
          <mxGeometry x="-201" y="67" width="120" height="60" as="geometry" />
        </mxCell>
        <mxCell id="OYpPtCtqeWTvnb7ZfXrP-17" style="edgeStyle=none;curved=1;rounded=0;orthogonalLoop=1;jettySize=auto;html=1;exitX=0.5;exitY=0;exitDx=0;exitDy=0;fontSize=12;startSize=8;endSize=8;" edge="1" parent="1" source="OYpPtCtqeWTvnb7ZfXrP-4" target="OYpPtCtqeWTvnb7ZfXrP-15">
          <mxGeometry relative="1" as="geometry" />
        </mxCell>
        <mxCell id="OYpPtCtqeWTvnb7ZfXrP-4" value="Paciente" style="whiteSpace=wrap;html=1;rounded=0;" vertex="1" parent="1">
          <mxGeometry x="149" y="67" width="120" height="60" as="geometry" />
        </mxCell>
        <mxCell id="OYpPtCtqeWTvnb7ZfXrP-11" value="Consulta" style="rounded=0;whiteSpace=wrap;html=1;" vertex="1" parent="1">
          <mxGeometry x="149" y="-145" width="120" height="60" as="geometry" />
        </mxCell>
        <mxCell id="OYpPtCtqeWTvnb7ZfXrP-28" style="edgeStyle=none;curved=1;rounded=0;orthogonalLoop=1;jettySize=auto;html=1;exitX=1;exitY=0.5;exitDx=0;exitDy=0;entryX=0;entryY=0.5;entryDx=0;entryDy=0;fontSize=12;startSize=8;endSize=8;" edge="1" parent="1" source="OYpPtCtqeWTvnb7ZfXrP-12" target="OYpPtCtqeWTvnb7ZfXrP-27">
          <mxGeometry relative="1" as="geometry" />
        </mxCell>
        <mxCell id="OYpPtCtqeWTvnb7ZfXrP-39" style="edgeStyle=none;curved=1;rounded=0;orthogonalLoop=1;jettySize=auto;html=1;entryX=0.5;entryY=0;entryDx=0;entryDy=0;fontSize=12;startSize=8;endSize=8;" edge="1" parent="1" source="OYpPtCtqeWTvnb7ZfXrP-12" target="OYpPtCtqeWTvnb7ZfXrP-37">
          <mxGeometry relative="1" as="geometry" />
        </mxCell>
        <mxCell id="OYpPtCtqeWTvnb7ZfXrP-12" value="Receita" style="rounded=0;whiteSpace=wrap;html=1;" vertex="1" parent="1">
          <mxGeometry x="-26" y="214" width="120" height="60" as="geometry" />
        </mxCell>
        <mxCell id="OYpPtCtqeWTvnb7ZfXrP-13" value="Relatório" style="rounded=0;whiteSpace=wrap;html=1;" vertex="1" parent="1">
          <mxGeometry x="-26" y="429" width="120" height="60" as="geometry" />
        </mxCell>
        <mxCell id="OYpPtCtqeWTvnb7ZfXrP-16" style="edgeStyle=none;curved=1;rounded=0;orthogonalLoop=1;jettySize=auto;html=1;exitX=0.5;exitY=0;exitDx=0;exitDy=0;entryX=0.5;entryY=1;entryDx=0;entryDy=0;fontSize=12;startSize=8;endSize=8;" edge="1" parent="1" source="OYpPtCtqeWTvnb7ZfXrP-15" target="OYpPtCtqeWTvnb7ZfXrP-11">
          <mxGeometry relative="1" as="geometry" />
        </mxCell>
        <mxCell id="OYpPtCtqeWTvnb7ZfXrP-15" value="Agenda" style="rhombus;whiteSpace=wrap;html=1;" vertex="1" parent="1">
          <mxGeometry x="151" y="-49" width="116" height="80" as="geometry" />
        </mxCell>
        <mxCell id="OYpPtCtqeWTvnb7ZfXrP-20" style="edgeStyle=none;curved=1;rounded=0;orthogonalLoop=1;jettySize=auto;html=1;entryX=0;entryY=0.5;entryDx=0;entryDy=0;fontSize=12;startSize=8;endSize=8;" edge="1" parent="1" source="OYpPtCtqeWTvnb7ZfXrP-18" target="OYpPtCtqeWTvnb7ZfXrP-4">
          <mxGeometry relative="1" as="geometry" />
        </mxCell>
        <mxCell id="OYpPtCtqeWTvnb7ZfXrP-18" value="Atende" style="rhombus;whiteSpace=wrap;html=1;rounded=0;" vertex="1" parent="1">
          <mxGeometry x="-23" y="57" width="114" height="80" as="geometry" />
        </mxCell>
        <mxCell id="OYpPtCtqeWTvnb7ZfXrP-26" style="edgeStyle=none;curved=1;rounded=0;orthogonalLoop=1;jettySize=auto;html=1;entryX=0;entryY=0.5;entryDx=0;entryDy=0;fontSize=12;startSize=8;endSize=8;" edge="1" parent="1" source="OYpPtCtqeWTvnb7ZfXrP-24" target="OYpPtCtqeWTvnb7ZfXrP-12">
          <mxGeometry relative="1" as="geometry" />
        </mxCell>
        <mxCell id="OYpPtCtqeWTvnb7ZfXrP-24" value="Cria" style="rhombus;whiteSpace=wrap;html=1;rounded=0;" vertex="1" parent="1">
          <mxGeometry x="-197.5" y="204" width="113" height="80" as="geometry" />
        </mxCell>
        <mxCell id="OYpPtCtqeWTvnb7ZfXrP-29" style="edgeStyle=none;curved=1;rounded=0;orthogonalLoop=1;jettySize=auto;html=1;exitX=0.5;exitY=0;exitDx=0;exitDy=0;entryX=0.5;entryY=1;entryDx=0;entryDy=0;fontSize=12;startSize=8;endSize=8;" edge="1" parent="1" source="OYpPtCtqeWTvnb7ZfXrP-27" target="OYpPtCtqeWTvnb7ZfXrP-4">
          <mxGeometry relative="1" as="geometry" />
        </mxCell>
        <mxCell id="OYpPtCtqeWTvnb7ZfXrP-27" value="Recebe" style="rhombus;whiteSpace=wrap;html=1;" vertex="1" parent="1">
          <mxGeometry x="159" y="204" width="100" height="80" as="geometry" />
        </mxCell>
        <mxCell id="OYpPtCtqeWTvnb7ZfXrP-38" style="edgeStyle=none;curved=1;rounded=0;orthogonalLoop=1;jettySize=auto;html=1;fontSize=12;startSize=8;endSize=8;" edge="1" parent="1" source="OYpPtCtqeWTvnb7ZfXrP-37" target="OYpPtCtqeWTvnb7ZfXrP-13">
          <mxGeometry relative="1" as="geometry" />
        </mxCell>
        <mxCell id="OYpPtCtqeWTvnb7ZfXrP-37" value="Gera" style="rhombus;whiteSpace=wrap;html=1;" vertex="1" parent="1">
          <mxGeometry x="-16" y="306" width="100" height="80" as="geometry" />
        </mxCell>
      </root>
    </mxGraphModel>
  </diagram>
</mxfile>
